<?xml version="1.0" encoding="UTF-8"?>
<!DOCTYPE svg PUBLIC "-//W3C//DTD SVG 1.1//EN" "http://www.w3.org/Graphics/SVG/1.1/DTD/svg11.dtd">
<svg xmlns="http://www.w3.org/2000/svg" version="1.1" width="64px" height="64px" style="shape-rendering:geometricPrecision; text-rendering:geometricPrecision; image-rendering:optimizeQuality; fill-rule:evenodd; clip-rule:evenodd" xmlns:xlink="http://www.w3.org/1999/xlink">
<g><path style="opacity:0.962" fill="#de3631" d="M 31.5,15.5 C 27.5916,15.8382 23.5916,16.0048 19.5,16C 18.0161,16.6622 16.6828,17.4955 15.5,18.5C 15.7965,15.2761 15.1298,12.2761 13.5,9.5C 14.3782,7.25181 14.0449,5.08515 12.5,3C 21.4853,3.15795 27.8186,7.32462 31.5,15.5 Z"/></g>
<g><path style="opacity:0.997" fill="#dcaa3f" d="M 32.5,21.5 C 33.8333,22.1667 34.8333,23.1667 35.5,24.5C 35.9528,25.4584 36.6195,26.2917 37.5,27C 35.7184,27.1218 34.0518,26.6218 32.5,25.5C 31.609,24.8902 30.609,24.5569 29.5,24.5C 27.31,23.6255 26.31,21.9589 26.5,19.5C 28.8583,19.2525 30.8583,19.9192 32.5,21.5 Z"/></g>
<g><path style="opacity:1" fill="#4d4c5c" d="M 31.5,15.5 C 32.3414,17.3792 32.6747,19.3792 32.5,21.5C 30.8583,19.9192 28.8583,19.2525 26.5,19.5C 26.31,21.9589 27.31,23.6255 29.5,24.5C 29.6716,25.4916 29.3382,26.1583 28.5,26.5C 24.3966,25.7691 20.8966,26.7691 18,29.5C 17.5017,34.5192 17.6684,39.5192 18.5,44.5C 18.5,45.5 18.5,46.5 18.5,47.5C 17.8333,47.5 17.5,47.1667 17.5,46.5C 15.9549,42.15 14.9549,37.65 14.5,33C 14.2337,29.7032 15.2337,26.8699 17.5,24.5C 17.3764,23.8933 17.0431,23.56 16.5,23.5C 15.6993,21.9582 15.366,20.2915 15.5,18.5C 16.6828,17.4955 18.0161,16.6622 19.5,16C 23.5916,16.0048 27.5916,15.8382 31.5,15.5 Z"/></g>
<g><path style="opacity:0.738" fill="#2f2f3b" d="M 16.5,23.5 C 17.0431,23.56 17.3764,23.8933 17.5,24.5C 15.2337,26.8699 14.2337,29.7032 14.5,33C 14.9549,37.65 15.9549,42.15 17.5,46.5C 11.3121,41.4354 9.47875,35.1021 12,27.5C 13.3968,25.9297 14.8968,24.5964 16.5,23.5 Z"/></g>
<g><path style="opacity:0.977" fill="#353542" d="M 32.5,41.5 C 33.7752,36.1529 33.7752,30.8195 32.5,25.5C 34.0518,26.6218 35.7184,27.1218 37.5,27C 36.6195,26.2917 35.9528,25.4584 35.5,24.5C 41.2027,23.6488 46.8693,23.6488 52.5,24.5C 50.6494,28.219 48.9828,32.0524 47.5,36C 44.4992,35.9056 42.4992,37.2389 41.5,40C 38.6074,41.1488 35.6074,41.6488 32.5,41.5 Z"/></g>
<g><path style="opacity:1" fill="#d2d2e8" d="M 28.5,26.5 C 30.8,32.3153 31.1334,38.3153 29.5,44.5C 27.6921,45.9179 27.0254,47.9179 27.5,50.5C 23.7315,50.7194 21.3982,49.0527 20.5,45.5C 20.1583,44.6618 19.4916,44.3284 18.5,44.5C 17.6684,39.5192 17.5017,34.5192 18,29.5C 20.8966,26.7691 24.3966,25.7691 28.5,26.5 Z"/></g>
<g><path style="opacity:1" fill="#5b5a6d" d="M 29.5,24.5 C 30.609,24.5569 31.609,24.8902 32.5,25.5C 33.7752,30.8195 33.7752,36.1529 32.5,41.5C 31.9862,43.3664 31.3195,45.1997 30.5,47C 32.2087,49.0433 34.2087,50.8766 36.5,52.5C 35.7542,53.7362 35.4208,55.0695 35.5,56.5C 33.3792,56.6747 31.3792,56.3414 29.5,55.5C 28.3797,51.9829 28.3797,48.3163 29.5,44.5C 31.1334,38.3153 30.8,32.3153 28.5,26.5C 29.3382,26.1583 29.6716,25.4916 29.5,24.5 Z"/></g>
<g><path style="opacity:0.662" fill="#fab424" d="M 18.5,44.5 C 19.4916,44.3284 20.1583,44.6618 20.5,45.5C 20.298,47.9496 20.6314,50.283 21.5,52.5C 21.5,55.1667 21.5,57.8333 21.5,60.5C 19.8333,60.5 18.1667,60.5 16.5,60.5C 17.4775,58.3362 18.4775,56.1695 19.5,54C 18.9233,51.863 18.59,49.6963 18.5,47.5C 18.5,46.5 18.5,45.5 18.5,44.5 Z"/></g>
<g><path style="opacity:0.793" fill="#feb61f" d="M 29.5,44.5 C 28.3797,48.3163 28.3797,51.9829 29.5,55.5C 30.0065,56.8589 31.0065,57.8589 32.5,58.5C 32.1667,59.5 31.5,60.1667 30.5,60.5C 29.5745,59.3595 28.7412,59.3595 28,60.5C 26.9914,58.9751 26.4914,57.3084 26.5,55.5C 27.4511,54.0813 27.7845,52.4147 27.5,50.5C 27.0254,47.9179 27.6921,45.9179 29.5,44.5 Z"/></g>
<g><path style="opacity:1" fill="#92898c" d="M 20.5,45.5 C 21.3982,49.0527 23.7315,50.7194 27.5,50.5C 27.7845,52.4147 27.4511,54.0813 26.5,55.5C 25.0351,54.2632 23.3684,53.2632 21.5,52.5C 20.6314,50.283 20.298,47.9496 20.5,45.5 Z"/></g>
</svg>
